<?xml version="1.0" encoding="utf-8"?>
<!-- Generator: Adobe Illustrator 16.0.0, SVG Export Plug-In . SVG Version: 6.00 Build 0)  -->
<!DOCTYPE svg PUBLIC "-//W3C//DTD SVG 1.1//EN" "http://www.w3.org/Graphics/SVG/1.1/DTD/svg11.dtd">
<svg version="1.1" id="_x30_" xmlns="http://www.w3.org/2000/svg" xmlns:xlink="http://www.w3.org/1999/xlink" x="0px" y="0px"
	 width="595.28px" height="624px" viewBox="0 0 595.28 624" enable-background="new 0 0 595.28 624" xml:space="preserve">
<g id="LWPOLYLINE">
	
		<path fill="#1D193B" stroke="#000000" stroke-width="0.7087" stroke-linecap="round" stroke-linejoin="round" stroke-miterlimit="10" d="
		M279.994,12.002c-26.317,2.063-52.271,7.429-77.25,15.968c-24.584,8.405-47.953,20.018-69.499,34.537
		c-21.46,14.461-40.909,31.705-57.837,51.278c-17.086,19.756-31.554,41.632-43.046,65.087
		c-9.916,20.237-17.461,41.551-22.487,63.519c-5.052,22.082-7.578,44.667-7.528,67.318c0.049,22.666,2.673,45.253,7.821,67.327
		c5.127,21.983,12.766,43.304,22.765,63.542c3.756,7.603,7.78,15.069,12.064,22.387c3.899,6.66,8.109,13.135,12.615,19.4
		c4.527,6.296,9.346,12.377,14.439,18.224c5.644,6.479,11.507,12.761,17.582,18.836c11.499,11.503,23.849,22.121,36.945,31.766
		c12.598,9.277,25.96,17.471,39.942,24.492c14.103,7.081,28.775,12.967,43.862,17.595c15.926,4.886,32.18,8.63,48.639,11.203
		c5.64,0.882,11.328,1.422,17.033,1.615c8.389,0.286,16.783,0.404,25.178,0.355c8.452-0.05,16.902-0.27,25.346-0.659
		c5.986-0.277,11.953-0.881,17.874-1.81c19.279-3.024,38.229-7.867,56.595-14.462c18.202-6.535,35.725-14.826,52.321-24.754
		c16.53-9.888,32.056-21.367,46.354-34.273c14.325-12.931,27.359-27.221,38.92-42.672c7.901-10.56,15.092-21.633,21.523-33.146
		c6.418-11.487,12.059-23.391,16.886-35.632c4.852-12.3,8.877-24.909,12.052-37.745c3.212-12.984,5.585-26.161,7.105-39.45
		c0.618-5.412,0.995-10.85,1.128-16.295c0.178-7.241,0.214-14.485,0.109-21.728c-0.103-7.16-0.343-14.317-0.721-21.468
		c-0.269-5.089-0.8-10.162-1.591-15.196c-2.562-16.306-6.296-32.405-11.173-48.174c-4.645-15.017-10.534-29.62-17.608-43.657
		c-7.022-13.934-15.206-27.252-24.464-39.812c-9.595-13.017-20.16-25.29-31.605-36.713c-6.096-6.084-12.397-11.959-18.894-17.614
		c-5.855-5.098-11.945-9.92-18.25-14.452c-6.263-4.502-12.733-8.709-19.391-12.605c-7.299-4.272-14.748-8.284-22.333-12.027
		c-7.376-3.64-14.889-6.996-22.521-10.061c-7.319-2.939-14.764-5.56-22.31-7.854c-7.592-2.308-15.28-4.288-23.042-5.933
		c-8.185-1.736-16.431-3.169-24.72-4.299c-3.729-0.508-7.477-0.863-11.234-1.064c-6.168-0.33-12.339-0.598-18.513-0.803
		c-6.153-0.205-12.308-0.349-18.464-0.433C287.069,11.61,283.526,11.725,279.994,12.002z"/>
</g>
<g id="LWPOLYLINE_1_">
	<path fill="#FFFFFF" stroke="#000000" stroke-miterlimit="10" d="M291.41,29.273c0,0.144-0.033,0.286-0.098,0.415
		c-0.854,1.716-1.709,3.432-2.565,5.147c-0.968,1.94-1.944,3.875-2.928,5.808c-1.153,2.266-2.312,4.529-3.476,6.79
		c-1.549,3.008-3.094,6.018-4.634,9.03c-2.271,4.44-4.541,8.881-6.809,13.323c-2.518,4.932-5.033,9.865-7.547,14.8
		c-2.413,4.738-4.824,9.477-7.233,14.217c-2.574,5.064-5.147,10.128-7.72,15.192c-3.018,5.94-6.036,11.879-9.054,17.819
		c-2.977,5.859-5.954,11.718-8.931,17.576c-2.436,4.793-4.872,9.587-7.307,14.38c-2.315,4.556-4.631,9.111-6.949,13.667
		c-2.592,5.095-5.186,10.19-7.78,15.284c-2.472,4.854-4.945,9.708-7.418,14.561c-1.908,3.743-3.817,7.484-5.728,11.225
		c-1.992,3.899-3.981,7.801-5.967,11.703c-2.771,5.445-5.541,10.891-8.309,16.337c-3.008,5.919-6.016,11.839-9.021,17.76
		c-2.81,5.536-5.618,11.073-8.424,16.61c-2.743,5.413-5.488,10.824-8.236,16.235c-2.815,5.545-5.633,11.089-8.453,16.632
		c-2.508,4.93-5.018,9.858-7.529,14.786c-1.639,3.216-3.282,6.43-4.93,9.641c-1.692,3.3-3.38,6.603-5.062,9.907
		c-2.718,5.34-5.435,10.681-8.149,16.022c-3.097,6.095-6.19,12.189-9.282,18.286c-3.075,6.063-6.147,12.129-9.217,18.194
		c-2.999,5.925-6.002,11.849-9.01,17.769c-2.882,5.673-5.769,11.343-8.661,17.01c-2.456,4.813-4.917,9.625-7.38,14.436
		c-1.267,2.473-2.546,4.94-3.838,7.401l-6.624,12.621l-3.33-4.948c-5.417-8.048-10.36-16.406-14.802-25.031
		c-4.605-8.941-8.738-18.117-12.382-27.491c-3.729-9.595-6.965-19.374-9.694-29.3c-2.757-10.03-5.015-20.19-6.764-30.444
		c-0.884-5.185-1.5-10.411-1.844-15.66c-0.458-6.995-0.76-14-0.905-21.009c-0.147-7.089-0.136-14.18,0.035-21.268
		c0.134-5.56,0.523-11.111,1.166-16.636c1.456-12.52,3.712-24.934,6.755-37.166c2.99-12.021,6.788-23.826,11.367-35.336
		c4.58-11.51,9.931-22.698,16.017-33.488c6.193-10.98,13.083-21.553,20.626-31.653c3.561-4.768,7.339-9.371,11.32-13.794
		c4.8-5.333,9.74-10.538,14.813-15.612c5.074-5.074,10.279-10.013,15.612-14.813c4.423-3.982,9.026-7.759,13.794-11.321
		c9.947-7.429,20.359-14.215,31.173-20.316c10.733-6.056,21.851-11.403,33.282-16.009c11.385-4.587,23.06-8.421,34.947-11.479
		c11.885-3.057,23.957-5.329,36.14-6.802c2.916-0.353,5.839-0.643,8.767-0.87c3.004-0.232,6.013-0.405,9.024-0.519
		c2.83-0.106,5.661-0.194,8.492-0.266c0.005,0,0.011,0,0.017,0C291.122,28.628,291.41,28.917,291.41,29.273z"/>
</g>
<g id="LWPOLYLINE_2_">
	<path fill="#FFFFFF" stroke="#000000" stroke-miterlimit="10" d="M344.101,32.236c25.797,4.419,50.865,12.357,74.504,23.591
		c23.512,11.174,45.351,25.572,64.886,42.778c19.512,17.186,36.528,37.012,50.557,58.904c14.075,21.967,25.047,45.774,32.604,70.745
		c1.146,3.791,2.205,7.608,3.172,11.448c1.055,4.184,2.032,8.387,2.933,12.607c0.902,4.225,1.728,8.466,2.476,12.722
		c0.688,3.917,1.285,7.849,1.79,11.793c0.641,5.001,1.027,10.031,1.159,15.07c0.181,6.877,0.22,13.757,0.119,20.636
		c-0.101,6.91-0.344,13.817-0.728,20.718c-0.287,5.163-0.821,10.31-1.602,15.422c-1.495,9.806-3.456,19.535-5.875,29.154
		c-2.364,9.403-5.206,18.679-8.514,27.793c-3.258,8.977-6.977,17.778-11.144,26.371c-4.14,8.537-8.728,16.85-13.742,24.904
		c-2.137,3.43-4.292,6.848-6.468,10.253c-0.383,0.599-0.979,1.028-1.668,1.201c-0.605,0.153-1.238-0.115-1.551-0.655
		c-1.399-2.422-2.76-4.866-4.082-7.331c-0.825-1.538-1.646-3.077-2.463-4.619c-1.071-2.023-2.141-4.047-3.207-6.072
		c-1.127-2.14-2.251-4.279-3.373-6.421c-1.011-1.931-2.019-3.861-3.023-5.795c-0.961-1.849-1.925-3.696-2.891-5.542
		c-0.986-1.887-1.975-3.771-2.966-5.654c-0.879-1.671-1.76-3.341-2.643-5.01c-0.571-1.08-1.147-2.158-1.728-3.233
		c-0.59-1.093-1.174-2.188-1.754-3.286c-0.925-1.751-1.847-3.503-2.768-5.257c-1.046-1.993-2.09-3.988-3.132-5.985
		c-1.031-1.977-2.061-3.954-3.087-5.934s-2.056-3.957-3.088-5.935c-1.042-1.996-2.087-3.991-3.135-5.984
		c-0.922-1.754-1.846-3.506-2.771-5.257c-0.581-1.099-1.167-2.194-1.759-3.286c-0.652-1.205-1.299-2.412-1.939-3.623
		c-1.264-2.391-2.526-4.782-3.787-7.175c-1.486-2.82-2.971-5.643-4.452-8.467c-1.551-2.956-3.1-5.913-4.646-8.871
		c-1.599-3.059-3.198-6.115-4.799-9.172c-1.636-3.124-3.271-6.247-4.909-9.369c-1.453-2.771-2.906-5.541-4.36-8.311
		c-0.942-1.793-1.886-3.586-2.831-5.377c-1.088-2.061-2.173-4.121-3.257-6.184c-2.287-4.355-4.574-8.71-6.86-13.065
		c-2.71-5.162-5.42-10.325-8.128-15.488c-2.871-5.473-5.741-10.945-8.611-16.419c-9.205-17.558-18.415-35.114-27.629-52.668
		c-12.755-24.301-25.512-48.602-38.271-72.9c-12.805-24.386-25.61-48.771-38.418-73.155c-3.674-6.995-7.354-13.985-11.043-20.972
		c-0.968-1.833-1.932-3.668-2.89-5.506c-0.854-1.636-1.7-3.275-2.542-4.917c-0.71-1.387-1.418-2.774-2.122-4.164
		c-0.193-0.38-0.366-0.771-0.519-1.169c-0.132-0.343,0.017-0.73,0.345-0.896c0.506-0.257,1.059-0.41,1.625-0.451
		c1.26-0.09,2.523-0.117,3.786-0.082c3.244,0.093,6.487,0.199,9.73,0.319c2.584,0.096,5.165,0.237,7.744,0.424
		c2.731,0.198,5.46,0.437,8.185,0.716c2.702,0.277,5.4,0.594,8.093,0.952C339.131,31.433,341.619,31.812,344.101,32.236z"/>
</g>
<g id="LWPOLYLINE_3_">
	<path fill="#FFFFFF" stroke="#000000" stroke-miterlimit="10" d="M235.397,287.552c2.841,1.067,5.542,2.473,8.047,4.186
		c2.599,1.778,4.999,3.831,7.159,6.122c2.241,2.378,4.229,4.981,5.935,7.769c1.757,2.871,3.238,5.902,4.424,9.052
		c0.678,1.799,1.146,3.67,1.396,5.576c0.34,2.601,0.561,5.215,0.659,7.836c0.179,4.763,0.285,9.528,0.316,14.294
		c0.092,13.87,0.17,27.74,0.234,41.609l0.293,63.178h-5.153h-5.152v-38.879v-38.878h-32.74h-32.74v-5.115v-5.116h32.821h32.821
		l-0.377-18.672c-0.072-3.562-0.168-7.124-0.29-10.686c-0.065-1.934-0.204-3.865-0.414-5.788c-0.15-1.374-0.391-2.735-0.721-4.077
		c-0.327-1.326-0.744-2.629-1.248-3.898c-0.766-1.928-1.708-3.78-2.815-5.535c-1.124-1.782-2.402-3.462-3.82-5.021
		c-1.402-1.542-2.939-2.956-4.592-4.225c-1.593-1.224-3.303-2.286-5.106-3.171c-1.121-0.55-2.265-1.052-3.429-1.505
		c-0.925-0.359-1.879-0.64-2.852-0.839c-1.048-0.214-2.112-0.35-3.181-0.406c-1.529-0.081-3.061-0.121-4.592-0.121
		c-1.584,0-3.169,0.043-4.751,0.129c-1.079,0.059-2.151,0.206-3.207,0.44c-1.025,0.228-2.029,0.544-3,0.945
		c-1.354,0.559-2.689,1.163-4.003,1.81c-1.977,0.973-3.87,2.111-5.657,3.4c-1.775,1.281-3.438,2.711-4.969,4.275
		c-1.534,1.567-2.932,3.262-4.177,5.066c-1.258,1.822-2.362,3.746-3.302,5.75l-2.722,5.807l-0.293,62.154l-0.293,62.154h-5.078
		h-5.078v-59.201c0-8.241,0.023-16.482,0.069-24.725c0.037-6.623,0.108-13.247,0.215-19.87c0.085-5.271,0.188-10.542,0.307-15.812
		c0.033-1.443,0.184-2.882,0.453-4.3c1.254-6.611,3.921-12.874,7.819-18.358c3.929-5.527,8.979-10.164,14.82-13.606
		c5.76-3.394,12.181-5.51,18.83-6.205C222.747,284.419,229.297,285.26,235.397,287.552z"/>
</g>
<g id="LWPOLYLINE_4_">
	<path fill="#FFFFFF" stroke="#000000" stroke-miterlimit="10" d="M390.182,286.086c3.934,1.024,7.697,2.613,11.175,4.717
		c3.47,2.1,6.615,4.695,9.337,7.703c2.797,3.091,5.145,6.562,6.972,10.309c1.914,3.923,3.339,8.067,4.244,12.338
		c0.409,1.929,0.661,3.887,0.755,5.856c0.185,3.868,0.319,7.739,0.404,11.61c0.133,5.998,0.211,11.997,0.236,17.996
		c0.043,10.32,0.066,20.641,0.069,30.961l0.019,59.597h-5.116h-5.115v-38.879v-38.878h-32.74h-32.739v-5.115v-5.116h32.852h32.853
		l-0.371-18.73l-0.371-18.73l-3.906-7.904c-0.672-1.359-1.388-2.696-2.146-4.01c-0.61-1.058-1.286-2.077-2.021-3.052
		c-0.673-0.89-1.405-1.732-2.194-2.521c-0.838-0.837-1.725-1.625-2.653-2.36c-4.012-3.171-8.716-5.348-13.729-6.355
		c-5.04-1.012-10.245-0.838-15.206,0.509c-5.12,1.39-9.867,3.9-13.897,7.351c-4.16,3.562-7.56,7.927-9.995,12.832l-2.794,5.627
		l-0.286,62.666l-0.285,62.666h-5.086h-5.085v-60.66c0-11.134,0.019-22.267,0.056-33.4c0.019-5.756,0.096-11.513,0.231-17.268
		c0.084-3.525,0.226-7.049,0.427-10.568c0.105-1.846,0.394-3.677,0.859-5.466c1.034-3.971,2.599-7.785,4.651-11.338
		c2.081-3.603,4.618-6.922,7.55-9.875c2.922-2.943,6.213-5.496,9.791-7.593c3.51-2.057,7.285-3.622,11.22-4.651
		c1.974-0.516,3.971-0.935,5.984-1.257c1.755-0.281,3.528-0.432,5.306-0.454c1.73-0.021,3.46,0.089,5.174,0.33
		C386.485,285.237,388.347,285.608,390.182,286.086z"/>
</g>
<g id="LWPOLYLINE_5_">
	<path fill="#FFFFFF" stroke="#000000" stroke-miterlimit="10" d="M306.836,432.771c0.479,0.479,0.923,0.988,1.331,1.527
		c0.36,0.475,0.671,0.984,0.93,1.521c0.238,0.496,0.421,1.017,0.545,1.552c0.123,0.53,0.185,1.073,0.185,1.618
		c0,1.114-0.26,2.214-0.759,3.211c-0.563,1.126-1.305,2.153-2.194,3.043c-0.89,0.891-1.918,1.631-3.043,2.194
		c-0.997,0.499-2.097,0.76-3.212,0.76c-1.057,0-2.098-0.25-3.039-0.729c-1.12-0.57-2.155-1.294-3.075-2.15
		c-0.902-0.84-1.681-1.803-2.313-2.861c-0.51-0.855-0.78-1.833-0.78-2.829c0-1.939,0.504-3.846,1.462-5.531
		c0.896-1.578,2.274-2.826,3.932-3.563c1.63-0.725,3.453-0.891,5.188-0.475C303.826,430.499,305.502,431.438,306.836,432.771z"/>
</g>
<g id="LWPOLYLINE_6_">
	<path fill="#FFFFFF" stroke="#000000" stroke-miterlimit="10" d="M462.35,432.771c0.478,0.479,0.923,0.988,1.331,1.527
		c0.36,0.475,0.671,0.984,0.93,1.521c0.238,0.496,0.421,1.017,0.545,1.552c0.123,0.53,0.185,1.073,0.185,1.618
		c0,1.114-0.26,2.214-0.759,3.211c-0.563,1.126-1.305,2.153-2.194,3.043c-0.891,0.891-1.918,1.631-3.043,2.194
		c-0.997,0.499-2.097,0.76-3.212,0.76c-1.067,0-2.12-0.252-3.072-0.735c-1.121-0.568-2.154-1.295-3.069-2.157
		c-0.899-0.849-1.671-1.824-2.289-2.895c-0.51-0.881-0.777-1.881-0.777-2.898c0-1.932,0.504-3.83,1.461-5.508
		c0.896-1.568,2.272-2.806,3.927-3.528c1.633-0.714,3.456-0.869,5.187-0.441C459.334,430.487,461.012,431.434,462.35,432.771z"/>
</g>
<g id="LWPOLYLINE_7_">
	<path fill="#FFFFFF" stroke="#000000" stroke-miterlimit="10" d="M524.51,474.748c-0.344,0.982-0.857,1.897-1.516,2.703
		c-2.514,3.075-5.046,6.134-7.598,9.178c-2.647,3.157-5.335,6.28-8.062,9.368c-2.329,2.636-4.712,5.224-7.147,7.761
		c-7.194,7.495-14.793,14.591-22.764,21.255c-7.936,6.635-16.233,12.824-24.855,18.54c-8.604,5.703-17.519,10.925-26.702,15.639
		c-9.188,4.715-18.63,8.917-28.283,12.585c-25.057,9.521-51.345,15.416-78.068,17.508c-26.68,2.088-53.522,0.338-79.705-5.197
		c-26.179-5.534-51.429-14.796-74.977-27.502c-23.58-12.724-45.221-28.751-64.267-47.598c-2.837-2.808-5.613-5.678-8.324-8.607
		c-3.168-3.424-6.288-6.891-9.36-10.401c-2.868-3.276-5.703-6.582-8.504-9.916c-1.169-1.392-2.195-2.898-3.062-4.497
		c-0.065-0.12-0.1-0.253-0.101-0.389c-0.005-0.462,0.365-0.84,0.826-0.845c10.341-0.119,20.684-0.219,31.025-0.301
		c17.245-0.137,34.489-0.209,51.734-0.219c47.599-0.025,95.199-0.038,142.798-0.038c32.107,0,64.214,0.021,96.322,0.061
		c23.653,0.029,47.307,0.095,70.959,0.196c19.77,0.085,39.538,0.171,59.308,0.258c0.038,0,0.076,0.007,0.112,0.02
		C524.479,474.372,524.573,474.568,524.51,474.748z"/>
</g>
<g id="LWPOLYLINE_8_">
	
		<path fill="#1E193A" stroke="#000000" stroke-width="0.7087" stroke-linecap="round" stroke-linejoin="round" stroke-miterlimit="10" d="
		M149.828,183.978c-0.091,0.259-0.186,0.516-0.283,0.772c-0.107,0.281-0.217,0.562-0.329,0.841
		c-0.105,0.262-0.213,0.523-0.324,0.784c-0.083,0.195-0.17,0.389-0.261,0.581c-0.123,0.258-0.013,0.566,0.245,0.689
		c0.094,0.045,0.199,0.06,0.302,0.044c1.068-0.167,2.12-0.428,3.143-0.777c1.241-0.424,2.455-0.925,3.633-1.5
		c0.671-0.328,1.227-0.852,1.591-1.504c0.158-0.281,0.267-0.587,0.323-0.904c0.037-0.205-0.061-0.41-0.242-0.512
		c-0.271-0.153-0.574-0.239-0.885-0.253c-0.752-0.034-1.505-0.051-2.257-0.051c-0.642,0-1.284,0.032-1.923,0.095
		c-0.454,0.045-0.899,0.151-1.325,0.314c-0.326,0.125-0.624,0.314-0.876,0.557C150.12,183.383,149.938,183.665,149.828,183.978z"/>
</g>
<g id="LWPOLYLINE_9_">
	
		<path fill="#1E193A" stroke="#000000" stroke-width="0.7087" stroke-linecap="round" stroke-linejoin="round" stroke-miterlimit="10" d="
		M157.962,186.147l-1.519,2.937l10.671,11.924c1.371,1.532,2.754,3.053,4.148,4.564c1.191,1.291,2.399,2.568,3.622,3.83
		c1.055,1.088,2.114,2.173,3.177,3.253c0.136,0.138,0.328,0.206,0.52,0.183c0.143-0.017,0.277-0.078,0.383-0.174
		c0.189-0.171,0.368-0.354,0.534-0.548c0.204-0.236,0.393-0.485,0.566-0.744c0.187-0.279,0.361-0.567,0.521-0.862
		c0.223-0.413,0.401-0.848,0.53-1.299c0.094-0.331,0.097-0.682,0.006-1.014c-0.104-0.384-0.286-0.744-0.534-1.056
		c-0.422-0.532-0.868-1.045-1.335-1.537l-2.541-2.671l2.762-5.834c0.6-1.267,1.222-2.524,1.866-3.77
		c0.25-0.482,0.598-0.906,1.022-1.245c0.353-0.282,0.794-0.43,1.247-0.418c0.797,0.021,1.593,0.099,2.379,0.232
		c0.721,0.122,1.446,0.211,2.175,0.269c0.398,0.031,0.799-0.034,1.167-0.189c0.336-0.142,0.624-0.38,0.825-0.685
		c0.318-0.48,0.598-0.984,0.837-1.508c0.162-0.356,0.311-0.719,0.446-1.086c0.119-0.324,0.221-0.654,0.304-0.989
		c0.066-0.264,0.118-0.532,0.156-0.801c0.017-0.12-0.024-0.242-0.11-0.328c-0.178-0.178-0.412-0.291-0.663-0.318
		c-4.495-0.488-8.991-0.975-13.487-1.458c-4.053-0.437-8.108-0.859-12.164-1.27c-1.576-0.159-3.158-0.258-4.741-0.296
		c-0.21-0.005-0.416,0.06-0.584,0.184c-0.268,0.197-0.517,0.417-0.747,0.657c-0.28,0.293-0.537,0.609-0.767,0.943
		C158.388,185.385,158.163,185.759,157.962,186.147z"/>
</g>
<g id="LWPOLYLINE_10_">
	<path fill="#FFFFFF" stroke="#000000" stroke-miterlimit="10" d="M175.68,190.987c0.203,0.176,0.275,0.459,0.182,0.711
		c-0.342,0.921-0.704,1.834-1.087,2.739s-0.786,1.799-1.21,2.685c-0.121,0.252-0.376,0.413-0.655,0.413
		c-0.351,0-0.688-0.133-0.944-0.374c-1.027-0.965-2.042-1.942-3.045-2.931c-1.004-0.99-1.998-1.992-2.978-3.005
		c-0.241-0.249-0.375-0.581-0.375-0.927c0-0.006,0-0.013,0-0.02c0.011-0.232,0.208-0.412,0.44-0.401
		c1.436,0.067,2.872,0.15,4.306,0.248c1.397,0.096,2.793,0.213,4.187,0.353C174.938,190.521,175.35,190.699,175.68,190.987z"/>
</g>
<g id="LWPOLYLINE_11_">
	
		<path fill="#1E193A" stroke="#000000" stroke-width="0.7087" stroke-linecap="round" stroke-linejoin="round" stroke-miterlimit="10" d="
		M145.128,211.414c-1.015,1.952-2.011,3.914-2.988,5.884c-0.492,0.991-0.921,2.012-1.285,3.057c-0.202,0.58-0.317,1.186-0.341,1.799
		c-0.016,0.4,0.183,0.779,0.522,0.994c0.537,0.339,1.113,0.611,1.716,0.809c0.423,0.139,0.881,0.122,1.292-0.048
		c0.441-0.182,0.815-0.496,1.072-0.899c0.396-0.625,0.738-1.282,1.021-1.965c0.17-0.412,0.354-0.819,0.549-1.22
		c0.183-0.376,0.38-0.746,0.59-1.108c0.175-0.302,0.36-0.598,0.556-0.887c0.101-0.149,0.231-0.275,0.384-0.369
		c0.184-0.114,0.412-0.131,0.611-0.046c1.059,0.449,2.113,0.907,3.164,1.375c1.246,0.554,2.482,1.132,3.706,1.733
		c1.424,0.7,2.84,1.417,4.247,2.152c1.399,0.73,2.802,1.452,4.21,2.164c1.19,0.602,2.387,1.192,3.59,1.769
		c1.047,0.502,2.096,1.002,3.145,1.5c0.09,0.042,0.198,0.019,0.262-0.057c0.276-0.329,0.515-0.688,0.712-1.069
		c0.326-0.629,0.635-1.266,0.926-1.912c0.304-0.671,0.599-1.346,0.886-2.024c0.056-0.131,0.016-0.283-0.096-0.37
		c-0.088-0.069-0.182-0.13-0.28-0.183c-0.988-0.534-1.976-1.067-2.964-1.6c-1.125-0.606-2.252-1.211-3.379-1.813
		c-1.314-0.703-2.63-1.403-3.946-2.103c-1.317-0.7-2.634-1.402-3.949-2.106c-1.131-0.605-2.261-1.213-3.389-1.824
		c-0.987-0.534-1.973-1.069-2.959-1.604c-0.112-0.061-0.218-0.131-0.317-0.211c-0.081-0.065-0.117-0.172-0.093-0.273
		c0.094-0.386,0.196-0.77,0.305-1.152c0.134-0.47,0.283-0.935,0.446-1.395c0.19-0.537,0.391-1.069,0.603-1.598
		c0.34-0.85,0.665-1.707,0.972-2.57c0.125-0.353,0.179-0.727,0.156-1.101c-0.018-0.286-0.149-0.553-0.364-0.741
		c-0.331-0.289-0.693-0.539-1.08-0.746c-0.256-0.137-0.514-0.271-0.774-0.401c-0.233-0.116-0.468-0.228-0.705-0.335
		c-0.198-0.089-0.396-0.176-0.596-0.26c-0.066-0.028-0.137-0.04-0.208-0.037c-0.08,0.004-0.152,0.049-0.19,0.119
		c-0.562,1.019-1.124,2.039-1.684,3.059c-0.635,1.157-1.262,2.318-1.881,3.483C146.57,208.655,145.846,210.032,145.128,211.414z"/>
</g>
<g id="LWPOLYLINE_12_">
	
		<path fill="#1E193A" stroke="#000000" stroke-width="0.7087" stroke-linecap="round" stroke-linejoin="round" stroke-miterlimit="10" d="
		M136.083,228.739c-0.233,0.511-0.343,1.069-0.322,1.63c0.018,0.469,0.227,0.91,0.579,1.22c0.594,0.522,1.248,0.971,1.95,1.336
		c2.015,1.049,4.038,2.083,6.069,3.099c1.313,0.658,2.623,1.322,3.93,1.993c1.336,0.687,2.669,1.38,3.999,2.079
		c1.181,0.621,2.358,1.248,3.533,1.881c0.764,0.411,1.52,0.835,2.27,1.271l4.29,2.497l1.59-3.075l1.59-3.075l-13.258-6.708
		c-1.711-0.866-3.426-1.723-5.146-2.571c-1.488-0.733-2.982-1.456-4.481-2.166c-1.292-0.612-2.586-1.221-3.882-1.827
		c-0.203-0.095-0.423-0.144-0.647-0.144c-0.156,0-0.306,0.058-0.421,0.163c-0.2,0.182-0.386,0.378-0.556,0.589
		c-0.211,0.262-0.403,0.538-0.575,0.827C136.407,228.077,136.236,228.404,136.083,228.739z"/>
</g>
<g id="LWPOLYLINE_13_">
	
		<path fill="#1E193A" stroke="#000000" stroke-width="0.7087" stroke-linecap="round" stroke-linejoin="round" stroke-miterlimit="10" d="
		M130.817,239.414c-0.141,0.264-0.276,0.53-0.406,0.799c-0.121,0.252-0.235,0.507-0.342,0.765c-0.09,0.216-0.174,0.433-0.253,0.653
		c-0.038,0.105-0.058,0.217-0.058,0.329c0,0.133,0.07,0.255,0.184,0.323c0.762,0.453,1.528,0.902,2.295,1.346
		c0.9,0.521,1.809,1.028,2.726,1.521c1.073,0.576,2.151,1.142,3.235,1.696l8.441,4.318l-5.116,0.719
		c-0.78,0.11-1.562,0.204-2.346,0.282c-0.947,0.095-1.896,0.179-2.844,0.252c-0.956,0.074-1.912,0.136-2.869,0.188
		c-0.809,0.043-1.618,0.072-2.428,0.086c-1.255,0.021-2.505,0.169-3.73,0.442c-1.068,0.239-2.093,0.64-3.04,1.189
		c-0.772,0.448-1.447,1.045-1.986,1.756c-0.459,0.605-0.708,1.345-0.708,2.104c0,0.294,0.152,0.567,0.401,0.723
		c1.168,0.729,2.344,1.445,3.529,2.147c1.421,0.842,2.862,1.652,4.32,2.428c1.697,0.902,3.406,1.779,5.128,2.631
		c2.849,1.41,5.705,2.804,8.568,4.185c1.025,0.494,2.084,0.912,3.17,1.251c0.574,0.179,1.185,0.203,1.771,0.069
		c0.532-0.122,1.002-0.431,1.325-0.872c0.193-0.263,0.379-0.532,0.558-0.806c0.166-0.254,0.323-0.514,0.471-0.779
		c0.123-0.22,0.239-0.444,0.348-0.671c0.053-0.11,0.08-0.23,0.08-0.352c0-0.144-0.076-0.276-0.2-0.349
		c-0.731-0.426-1.466-0.848-2.204-1.264c-0.872-0.492-1.753-0.967-2.643-1.427c-1.04-0.537-2.085-1.062-3.138-1.575
		c-1.054-0.514-2.1-1.043-3.137-1.588c-0.893-0.469-1.774-0.959-2.643-1.47c-0.724-0.425-1.441-0.858-2.154-1.301
		c-0.156-0.096-0.25-0.266-0.25-0.449c0-0.147,0.095-0.276,0.235-0.32c0.342-0.106,0.69-0.193,1.042-0.26
		c0.464-0.088,0.933-0.149,1.404-0.184c0.555-0.041,1.111-0.061,1.667-0.062c0.713-0.001,1.427-0.017,2.139-0.047
		c0.978-0.041,1.954-0.09,2.931-0.147c1.054-0.062,2.107-0.131,3.159-0.209c0.976-0.072,1.95-0.155,2.924-0.247
		c1.274-0.12,2.545-0.268,3.812-0.443c0.683-0.094,1.353-0.269,1.994-0.521c0.462-0.181,0.879-0.46,1.222-0.819
		c0.373-0.389,0.677-0.838,0.9-1.328c0.148-0.324,0.292-0.65,0.431-0.978c0.126-0.297,0.248-0.597,0.363-0.898
		c0.097-0.251,0.19-0.504,0.28-0.757c0.033-0.093,0.05-0.191,0.05-0.29c0-0.208-0.116-0.397-0.301-0.491
		c-4.296-2.191-8.593-4.38-12.891-6.567c-4.213-2.144-8.428-4.284-12.646-6.42c-0.38-0.192-0.799-0.293-1.225-0.293
		c-0.094,0-0.184,0.039-0.249,0.107c-0.143,0.151-0.28,0.31-0.408,0.474c-0.161,0.206-0.312,0.419-0.451,0.64
		C131.103,238.903,130.956,239.156,130.817,239.414z"/>
</g>
<g id="LWPOLYLINE_14_">
	
		<path fill="#1E193A" stroke="#000000" stroke-width="0.7087" stroke-linecap="round" stroke-linejoin="round" stroke-miterlimit="10" d="
		M116.458,267.616c-0.176,0.33-0.341,0.666-0.493,1.008c-0.132,0.298-0.249,0.603-0.347,0.914c-0.077,0.242-0.142,0.489-0.193,0.738
		c-0.022,0.107,0.013,0.218,0.094,0.292c0.108,0.1,0.229,0.185,0.359,0.252c0.887,0.464,1.775,0.926,2.664,1.387
		c1.027,0.532,2.056,1.06,3.087,1.583c1.192,0.604,2.386,1.206,3.582,1.804c2.547,1.273,5.072,2.592,7.573,3.955
		c1.066,0.581,2.026,1.339,2.839,2.242c0.551,0.613,0.828,1.424,0.765,2.246c-0.082,1.064-0.359,2.104-0.819,3.068
		c-0.477,1.001-1.176,1.88-2.044,2.571c-0.739,0.588-1.672,0.877-2.614,0.809c-1.391-0.101-2.754-0.439-4.031-1
		c-2.551-1.121-5.074-2.307-7.564-3.558c-1.929-0.969-3.866-1.922-5.811-2.859c-0.764-0.369-1.562-0.665-2.381-0.885
		c-0.464-0.124-0.954-0.108-1.409,0.047c-0.45,0.153-0.841,0.44-1.121,0.823c-0.185,0.253-0.357,0.517-0.514,0.788
		c-0.159,0.275-0.304,0.559-0.435,0.849c-0.115,0.256-0.216,0.519-0.304,0.787c-0.06,0.184-0.091,0.376-0.091,0.569
		c0,0.257,0.133,0.497,0.352,0.632c0.978,0.606,1.962,1.2,2.955,1.781c1.195,0.7,2.408,1.371,3.636,2.012
		c1.427,0.745,2.865,1.467,4.314,2.167c2.424,1.17,4.856,2.322,7.297,3.455c0.961,0.446,1.96,0.807,2.984,1.077
		c0.713,0.188,1.457,0.231,2.188,0.125c0.893-0.129,1.768-0.356,2.611-0.677c1.846-0.703,3.467-1.891,4.693-3.439
		c1.383-1.747,2.428-3.737,3.083-5.867c0.618-2.013,0.828-4.129,0.617-6.224c-0.173-1.721-0.973-3.318-2.246-4.489
		c-0.759-0.699-1.6-1.304-2.503-1.803c-2.812-1.555-5.635-3.091-8.468-4.608c-2.953-1.581-5.911-3.151-8.875-4.71
		c-0.524-0.275-1.108-0.419-1.701-0.419c-0.077,0-0.149,0.037-0.195,0.099c-0.158,0.214-0.311,0.432-0.46,0.652
		c-0.182,0.27-0.356,0.545-0.521,0.826C116.819,266.959,116.635,267.285,116.458,267.616z"/>
</g>
<g id="LWPOLYLINE_15_">
	
		<path fill="#1E193A" stroke="#000000" stroke-width="0.7087" stroke-linecap="round" stroke-linejoin="round" stroke-miterlimit="10" d="
		M413.396,163.433c-0.228,0.091-0.434,0.228-0.606,0.402c-0.275,0.278-0.537,0.571-0.782,0.877
		c-0.287,0.358-0.556,0.731-0.805,1.117c-0.255,0.396-0.491,0.804-0.708,1.223c-0.32,0.62-0.586,1.266-0.794,1.931
		c-0.18,0.574-0.279,1.169-0.298,1.771c-0.023,0.747,0.022,1.494,0.138,2.232c0.192,1.244,0.411,2.484,0.657,3.719
		c0.244,1.229,0.468,2.462,0.671,3.699c0.107,0.654,0.151,1.316,0.132,1.979c-0.014,0.453-0.112,0.898-0.291,1.314
		c-0.179,0.415-0.435,0.792-0.754,1.112c-0.444,0.444-1.003,0.758-1.613,0.908c-0.579,0.142-1.188,0.091-1.737-0.143
		c-0.666-0.284-1.257-0.721-1.724-1.276c-0.599-0.711-1.117-1.487-1.544-2.312c-0.306-0.591-0.583-1.195-0.832-1.811
		c-0.147-0.363-0.219-0.753-0.208-1.146c0.01-0.38,0.103-0.753,0.273-1.092c0.272-0.543,0.577-1.071,0.91-1.58
		c0.312-0.477,0.596-0.971,0.849-1.481c0.17-0.341,0.272-0.712,0.304-1.092c0.028-0.363-0.018-0.729-0.138-1.073
		c-0.166-0.479-0.37-0.944-0.609-1.392c-0.341-0.637-0.731-1.248-1.167-1.825c-0.227-0.299-0.587-0.467-0.962-0.447
		c-0.413,0.022-0.802,0.201-1.087,0.501c-0.617,0.65-1.204,1.329-1.758,2.034c-1.429,1.815-2.148,4.087-2.028,6.394
		c0.14,2.65,0.899,5.23,2.219,7.533c1.281,2.236,3.092,4.123,5.273,5.496c1.855,1.167,4.107,1.526,6.233,0.992
		c1.387-0.348,2.668-1.025,3.737-1.975c1.043-0.926,1.828-2.108,2.276-3.43c0.546-1.606,0.778-3.303,0.686-4.997
		c-0.121-2.213-0.434-4.412-0.935-6.57c-0.225-0.966-0.396-1.944-0.512-2.929c-0.072-0.613-0.013-1.234,0.175-1.822
		c0.138-0.43,0.435-0.791,0.829-1.009c0.45-0.249,0.955-0.379,1.47-0.379c0.736,0,1.444,0.287,1.974,0.799
		c0.674,0.653,1.222,1.424,1.614,2.276c0.421,0.913,0.683,1.891,0.773,2.893c0.08,0.873-0.069,1.751-0.433,2.549
		c-0.189,0.416-0.346,0.846-0.467,1.286c-0.101,0.366-0.15,0.744-0.147,1.124c0.003,0.368,0.059,0.732,0.166,1.083
		c0.123,0.401,0.285,0.79,0.483,1.16c0.305,0.569,0.669,1.104,1.087,1.595c0.257,0.301,0.635,0.47,1.029,0.462
		c0.419-0.009,0.818-0.182,1.111-0.482c0.507-0.519,0.972-1.079,1.388-1.673c1.106-1.58,1.653-3.485,1.553-5.411
		c-0.12-2.289-0.688-4.532-1.671-6.603c-0.959-2.021-2.318-3.826-3.994-5.307c-1.369-1.21-3.146-1.857-4.974-1.81
		c-0.432,0.011-0.864,0.034-1.295,0.069c-0.435,0.036-0.868,0.083-1.3,0.142c-0.38,0.051-0.758,0.114-1.134,0.186
		C413.859,163.271,413.623,163.341,413.396,163.433z"/>
</g>
<g id="LWPOLYLINE_16_">
	
		<path fill="#1F1939" stroke="#000000" stroke-width="0.7087" stroke-linecap="round" stroke-linejoin="round" stroke-miterlimit="10" d="
		M420.625,192.826l-13.511,7.212l5.155,9.746c0.669,1.265,1.344,2.527,2.024,3.786c0.598,1.105,1.203,2.206,1.816,3.303
		c0.521,0.933,1.046,1.865,1.573,2.794c0.116,0.205,0.258,0.394,0.422,0.562c0.105,0.108,0.25,0.167,0.4,0.166
		c0.22-0.002,0.438-0.033,0.65-0.092c0.27-0.075,0.529-0.179,0.777-0.309c0.275-0.145,0.54-0.311,0.791-0.496
		c0.392-0.289,0.718-0.656,0.96-1.079c0.2-0.351,0.264-0.765,0.179-1.16c-0.138-0.632-0.354-1.246-0.644-1.824
		c-0.779-1.554-1.572-3.101-2.381-4.639c-0.489-0.931-0.97-1.867-1.44-2.808c-0.398-0.796-0.783-1.598-1.156-2.407
		c-0.316-0.688-0.63-1.378-0.939-2.07c-0.04-0.089-0.013-0.194,0.065-0.253c0.594-0.447,1.201-0.877,1.82-1.29
		c0.633-0.421,1.276-0.826,1.931-1.213c0.578-0.342,1.163-0.674,1.755-0.995c0.218-0.118,0.461-0.18,0.709-0.18
		c0.176,0,0.34,0.088,0.437,0.234c0.375,0.567,0.74,1.14,1.096,1.719c0.433,0.704,0.845,1.42,1.237,2.148
		c0.454,0.841,0.893,1.691,1.315,2.549c0.422,0.855,0.855,1.705,1.301,2.549c0.382,0.725,0.78,1.44,1.193,2.147
		c0.346,0.592,0.698,1.18,1.056,1.765c0.072,0.117,0.199,0.188,0.337,0.188c0.118,0,0.234-0.026,0.341-0.076
		c0.213-0.1,0.423-0.206,0.629-0.319c0.249-0.137,0.492-0.282,0.729-0.436c0.255-0.164,0.505-0.336,0.749-0.515
		c0.368-0.269,0.677-0.611,0.906-1.004c0.191-0.33,0.26-0.717,0.19-1.092c-0.108-0.587-0.294-1.159-0.551-1.698
		c-0.649-1.364-1.314-2.72-1.995-4.068c-0.681-1.348-1.346-2.705-1.995-4.068c-0.257-0.54-0.441-1.11-0.55-1.698
		c-0.069-0.375-0.002-0.762,0.19-1.091c0.229-0.394,0.538-0.735,0.905-1.004c0.611-0.447,1.291-0.79,2.014-1.017
		c0.513-0.161,1.072-0.075,1.513,0.234c0.618,0.432,1.139,0.989,1.526,1.636c0.88,1.464,1.726,2.948,2.535,4.452
		c0.781,1.45,1.594,2.883,2.437,4.299c0.384,0.646,0.88,1.218,1.464,1.69c0.393,0.317,0.9,0.455,1.399,0.379
		c0.627-0.095,1.227-0.319,1.762-0.658c0.314-0.199,0.5-0.549,0.489-0.922c-0.017-0.573-0.117-1.14-0.297-1.685
		c-0.314-0.955-0.692-1.889-1.129-2.794c-0.82-1.7-1.66-3.39-2.519-5.07c-0.634-1.239-1.273-2.475-1.92-3.708
		c-0.565-1.078-1.139-2.151-1.721-3.22c-0.496-0.912-0.996-1.822-1.498-2.73c-0.103-0.185-0.233-0.352-0.388-0.495
		c-0.146-0.135-0.359-0.169-0.541-0.087c-1.296,0.589-2.589,1.186-3.878,1.79c-1.513,0.708-3.015,1.441-4.504,2.198
		C424.1,190.993,422.357,191.9,420.625,192.826z"/>
</g>
<g id="LWPOLYLINE_17_">
	<path fill="#1E193A" stroke="#000000" stroke-miterlimit="10" d="M433.923,218.321l-13.514,7.106l1.551,2.999l1.551,2.999
		l5.432-3.065c0.884-0.499,1.78-0.976,2.688-1.43c0.577-0.289,1.181-0.524,1.801-0.704c0.405-0.117,0.827-0.167,1.248-0.148
		c0.321,0.015,0.626,0.149,0.854,0.376c0.403,0.404,0.7,0.901,0.863,1.447c0.164,0.549,0.19,1.13,0.077,1.692
		c-0.173,0.864-0.443,1.706-0.805,2.51c-0.71,1.578-1.448,3.144-2.213,4.696c-0.641,1.297-1.257,2.606-1.849,3.925
		c-0.303,0.674-0.527,1.38-0.671,2.104c-0.11,0.559-0.112,1.134-0.006,1.694c0.132,0.691,0.334,1.366,0.603,2.016
		c0.171,0.412,0.356,0.817,0.557,1.216c0.177,0.352,0.372,0.694,0.586,1.026c0.168,0.262,0.35,0.517,0.544,0.761
		c0.086,0.108,0.216,0.171,0.354,0.171c0.161,0,0.312-0.083,0.398-0.219c0.389-0.611,0.769-1.228,1.142-1.848
		c0.448-0.748,0.879-1.505,1.29-2.273c0.479-0.892,0.943-1.792,1.394-2.698c0.718-1.444,1.452-2.879,2.203-4.307
		c0.285-0.541,0.647-1.038,1.075-1.474c0.257-0.262,0.621-0.387,0.984-0.337c0.451,0.062,0.881,0.229,1.254,0.491
		c1.179,0.825,2.576,1.28,4.014,1.31c1.54,0.032,3.065-0.307,4.447-0.986c1.363-0.671,2.542-1.665,3.434-2.895
		c0.821-1.134,1.264-2.499,1.264-3.899c0-1.003-0.193-1.996-0.568-2.926c-0.924-2.285-1.889-4.554-2.895-6.805
		c-1.005-2.251-2.051-4.485-3.136-6.7c-0.438-0.893-1.045-1.692-1.789-2.353c-0.149-0.133-0.363-0.166-0.546-0.084
		c-1.297,0.581-2.592,1.169-3.882,1.764c-1.515,0.698-3.017,1.42-4.508,2.167C437.398,216.515,435.656,217.41,433.923,218.321z"/>
</g>
<g id="LWPOLYLINE_18_">
	<path fill="#FFFFFF" stroke="#000000" stroke-miterlimit="10" d="M449.031,224.552c0.444,0.836,0.866,1.683,1.267,2.54
		c0.217,0.465,0.368,0.958,0.45,1.464c0.06,0.369,0.025,0.746-0.1,1.098c-0.141,0.396-0.35,0.763-0.618,1.086
		c-0.473,0.57-1.099,0.994-1.804,1.222c-0.665,0.215-1.385,0.196-2.038-0.053c-0.81-0.309-1.533-0.807-2.112-1.452
		c-0.753-0.84-1.413-1.759-1.968-2.741c-0.63-1.114-1.243-2.238-1.84-3.37c-0.2-0.379-0.307-0.802-0.31-1.231
		c-0.002-0.339,0.162-0.657,0.44-0.851c0.528-0.368,1.085-0.693,1.665-0.973c0.785-0.379,1.602-0.692,2.438-0.937
		c0.5-0.146,1.036-0.105,1.508,0.116c0.524,0.245,0.969,0.633,1.283,1.12C447.915,222.552,448.495,223.54,449.031,224.552z"/>
</g>
<g id="LWPOLYLINE_19_">
	
		<path fill="#1E193A" stroke="#000000" stroke-width="0.7087" stroke-linecap="round" stroke-linejoin="round" stroke-miterlimit="10" d="
		M454.588,241.756c-3.929,4.107-7.849,8.222-11.761,12.344c-0.972,1.024-1.879,2.107-2.716,3.244
		c-0.46,0.625-0.731,1.369-0.781,2.143c-0.053,0.833,0.085,1.666,0.404,2.437c0.171,0.413,0.37,0.814,0.595,1.2
		c0.209,0.358,0.447,0.697,0.713,1.015c0.217,0.259,0.458,0.496,0.721,0.708c0.169,0.138,0.381,0.213,0.6,0.213
		c0.87,0,1.738-0.063,2.6-0.188c4.491-0.65,8.982-1.306,13.472-1.968c4.757-0.702,9.514-1.405,14.271-2.11
		c0.228-0.034,0.438-0.139,0.604-0.299c0.172-0.167,0.223-0.424,0.128-0.645c-0.343-0.794-0.703-1.58-1.082-2.356
		c-0.379-0.776-0.776-1.542-1.191-2.299c-0.123-0.224-0.359-0.361-0.615-0.357c-0.153,0.002-0.306,0.016-0.457,0.04
		c-1.066,0.172-2.133,0.345-3.199,0.52c-1.229,0.2-2.458,0.404-3.687,0.61c-1.42,0.239-2.84,0.479-4.259,0.723
		c-2.187,0.374-4.378,0.716-6.574,1.024c-1.099,0.154-2.21,0.199-3.316,0.134c-0.023-0.001-0.048-0.004-0.07-0.009
		c-0.312-0.058-0.519-0.357-0.462-0.669c0.08-0.434,0.337-0.815,0.71-1.052c0.282-0.18,0.547-0.388,0.789-0.62
		c0.687-0.659,1.369-1.323,2.047-1.991c0.81-0.799,1.612-1.604,2.406-2.418c0.876-0.897,1.745-1.801,2.608-2.711
		c1.435-1.512,2.854-3.038,4.258-4.577c0.51-0.558,0.942-1.183,1.286-1.856c0.24-0.47,0.318-1.006,0.223-1.526
		c-0.13-0.707-0.352-1.394-0.659-2.044l-1.459-3.081L454.588,241.756z"/>
</g>
<g id="LWPOLYLINE_20_">
	
		<path fill="#1E193A" stroke="#000000" stroke-width="0.7087" stroke-linecap="round" stroke-linejoin="round" stroke-miterlimit="10" d="
		M461.518,270.324l-13.541,7.171l1.486,2.875l1.486,2.875l13.8-7.186l13.8-7.186l-1.516-2.93c-0.194-0.375-0.393-0.748-0.597-1.118
		c-0.174-0.314-0.354-0.625-0.54-0.931c-0.156-0.255-0.314-0.509-0.476-0.762c-0.028-0.044-0.082-0.064-0.132-0.049
		c-0.062,0.019-0.121,0.043-0.179,0.073c-1.32,0.694-2.641,1.389-3.961,2.083c-1.476,0.775-2.949,1.552-4.423,2.331
		C464.989,268.487,463.254,269.405,461.518,270.324z"/>
</g>
<g id="LWPOLYLINE_21_">
	
		<path fill="#1E193A" stroke="#000000" stroke-width="0.7087" stroke-linecap="round" stroke-linejoin="round" stroke-miterlimit="10" d="
		M478.068,274.739c-0.402,0.303-0.767,0.654-1.084,1.046c-0.212,0.262-0.308,0.599-0.267,0.933c0.058,0.461,0.195,0.909,0.407,1.322
		c0.576,1.124,1.166,2.24,1.771,3.349c0.368,0.675,0.728,1.355,1.077,2.04c0.314,0.615,0.618,1.236,0.909,1.862
		c0.243,0.521,0.479,1.046,0.709,1.574c0.078,0.179,0.118,0.372,0.118,0.566c0,0.011-0.001,0.021-0.002,0.032
		c-0.018,0.16-0.161,0.276-0.321,0.258c-1.07-0.116-2.14-0.243-3.207-0.381c-1.297-0.168-2.59-0.365-3.878-0.591
		c-1.54-0.271-3.076-0.562-4.608-0.873c-2.098-0.426-4.2-0.829-6.307-1.208c-1.279-0.23-2.568-0.402-3.863-0.516
		c-0.879-0.077-1.763-0.086-2.644-0.029c-0.681,0.044-1.349,0.2-1.978,0.46l-2.775,1.149l5.839,11.138
		c0.75,1.429,1.51,2.853,2.28,4.271c0.656,1.208,1.327,2.407,2.012,3.599c0.593,1.03,1.188,2.059,1.787,3.084
		c0.069,0.118,0.195,0.192,0.332,0.195c0.112,0.002,0.224-0.022,0.324-0.07c0.211-0.1,0.419-0.207,0.623-0.32
		c0.246-0.136,0.487-0.281,0.724-0.435c0.255-0.166,0.505-0.338,0.749-0.517c0.369-0.269,0.671-0.62,0.882-1.023
		c0.184-0.35,0.234-0.754,0.145-1.138c-0.147-0.623-0.371-1.224-0.667-1.792c-0.753-1.443-1.521-2.879-2.306-4.306
		c-0.487-0.887-0.962-1.78-1.424-2.68c-0.394-0.767-0.77-1.543-1.127-2.328c-0.299-0.654-0.59-1.311-0.874-1.971
		c-0.055-0.126-0.026-0.273,0.071-0.371c0.106-0.106,0.258-0.156,0.407-0.133c1.196,0.186,2.392,0.376,3.586,0.57
		c1.385,0.225,2.766,0.467,4.145,0.726c1.614,0.303,3.226,0.619,4.835,0.946c2.019,0.411,4.042,0.799,6.069,1.163
		c1.352,0.243,2.711,0.435,4.076,0.577c0.934,0.097,1.871,0.146,2.809,0.147c0.536,0.001,1.063-0.131,1.535-0.384
		c0.255-0.136,0.505-0.281,0.75-0.434c0.218-0.136,0.43-0.282,0.634-0.438c0.163-0.125,0.32-0.256,0.473-0.395
		c0.065-0.059,0.103-0.143,0.103-0.231c0-0.269-0.066-0.534-0.192-0.772c-1.669-3.139-3.34-6.276-5.013-9.412
		c-1.701-3.188-3.402-6.374-5.105-9.56c-0.064-0.121-0.19-0.197-0.328-0.197c-0.053,0-0.104,0.016-0.149,0.044
		c-0.198,0.13-0.396,0.262-0.593,0.395c-0.232,0.157-0.463,0.318-0.691,0.482C478.585,274.354,478.326,274.545,478.068,274.739z"/>
</g>
<g id="LWPOLYLINE_22_">
	
		<path fill="#1E193A" stroke="#000000" stroke-width="0.7087" stroke-linecap="round" stroke-linejoin="round" stroke-miterlimit="10" d="
		M479.175,304.433c-1.582,0.843-3.156,1.702-4.722,2.577c-1.356,0.758-2.701,1.538-4.034,2.338c-1.13,0.678-2.256,1.365-3.376,2.058
		c-0.221,0.136-0.386,0.345-0.468,0.591c-0.058,0.175-0.077,0.359-0.056,0.543c0.031,0.276,0.082,0.55,0.15,0.819
		c0.079,0.313,0.178,0.622,0.296,0.924c0.12,0.308,0.259,0.607,0.415,0.898c0.242,0.453,0.651,0.794,1.141,0.95
		c0.521,0.167,1.082,0.164,1.602-0.008c1.024-0.339,2.021-0.756,2.98-1.248c2.811-1.442,5.615-2.898,8.411-4.368
		c1.677-0.881,3.354-1.763,5.029-2.646c1.452-0.765,2.903-1.531,4.354-2.297c1.257-0.664,2.514-1.328,3.77-1.993
		c0.188-0.1,0.375-0.203,0.56-0.31c0.311-0.179,0.458-0.548,0.357-0.893c-0.208-0.71-0.479-1.401-0.808-2.065
		c-0.339-0.684-0.736-1.337-1.188-1.953c-0.242-0.332-0.636-0.52-1.046-0.5c-0.27,0.013-0.534,0.08-0.778,0.197
		c-1.205,0.581-2.408,1.167-3.608,1.758c-1.409,0.693-2.811,1.4-4.206,2.121C482.354,302.752,480.762,303.588,479.175,304.433z"/>
</g>
<g id="LWPOLYLINE_23_">
	
		<path fill="#1E193A" stroke="#000000" stroke-width="0.7087" stroke-linecap="round" stroke-linejoin="round" stroke-miterlimit="10" d="
		M485.291,313.729c-2.372,1.23-4.492,2.896-6.25,4.907c-1.59,1.818-2.688,4.014-3.189,6.376c-0.489,2.303-0.356,4.694,0.385,6.929
		c0.798,2.406,2.096,4.617,3.809,6.485c0.614,0.672,1.268,1.307,1.955,1.903c0.519,0.45,1.095,0.831,1.713,1.133
		c0.627,0.306,1.291,0.53,1.975,0.669c0.93,0.188,1.868,0.327,2.812,0.418c1.487,0.144,2.986,0.099,4.463-0.131
		c1.475-0.23,2.914-0.646,4.284-1.234c1.4-0.603,2.721-1.375,3.932-2.299c1.257-0.96,2.405-2.054,3.424-3.264
		c1.234-1.469,2.059-3.237,2.388-5.127c0.37-2.128,0.346-4.306-0.071-6.425c-0.424-2.148-1.233-4.203-2.389-6.063
		c-1.048-1.687-2.493-3.092-4.208-4.093c-1.018-0.594-2.123-1.02-3.274-1.262c-1.36-0.286-2.745-0.438-4.135-0.456
		c-1.403-0.018-2.805,0.102-4.186,0.355C487.529,312.771,486.371,313.167,485.291,313.729z"/>
</g>
<g id="LWPOLYLINE_24_">
	<path fill="#FFFFFF" stroke="#000000" stroke-miterlimit="10" d="M497.522,318.896c0.57,0.219,1.072,0.586,1.454,1.062
		c0.583,0.728,1.109,1.499,1.573,2.308c0.479,0.836,0.891,1.709,1.232,2.61c0.258,0.681,0.39,1.403,0.39,2.133
		c0,0.859-0.297,1.693-0.84,2.36c-0.88,1.08-1.851,2.082-2.901,2.996c-1.115,0.971-2.313,1.841-3.581,2.602
		c-0.999,0.601-2.097,1.018-3.242,1.232c-1.051,0.197-2.126,0.229-3.188,0.093c-1.011-0.129-1.989-0.44-2.889-0.919
		c-0.882-0.47-1.67-1.099-2.321-1.856c-0.667-0.775-1.193-1.66-1.557-2.615c-0.612-1.61-0.532-3.402,0.221-4.952
		c0.899-1.852,2.224-3.464,3.865-4.705c1.766-1.336,3.795-2.279,5.954-2.768C493.635,318.037,495.663,318.184,497.522,318.896z"/>
</g>
<g id="LWPOLYLINE_25_">
	
		<path fill="#1E193A" stroke="#000000" stroke-width="0.7087" stroke-linecap="round" stroke-linejoin="round" stroke-miterlimit="10" d="
		M238.422,492.175c-1.54,0.365-2.997,1.015-4.296,1.917c-1.308,0.908-2.438,2.049-3.333,3.365c-0.955,1.403-1.665,2.958-2.1,4.599
		c-0.476,1.788-0.716,3.631-0.716,5.481c0,2.582,0.502,5.139,1.478,7.528c0.895,2.19,2.332,4.116,4.176,5.598
		c1.777,1.426,3.906,2.347,6.163,2.665c2.371,0.335,4.787,0.116,7.059-0.638c1.095-0.363,2.118-0.913,3.025-1.625
		c1.029-0.808,1.958-1.734,2.77-2.76c0.683-0.864,1.247-1.816,1.675-2.831c0.255-0.605,0.105-1.306-0.376-1.753
		c-0.555-0.517-1.189-0.941-1.877-1.259c-0.564-0.26-1.191-0.351-1.806-0.26c-0.612,0.09-1.184,0.358-1.645,0.771
		c-0.561,0.501-1.036,1.089-1.409,1.742c-0.527,0.924-1.277,1.7-2.182,2.259c-0.912,0.563-1.947,0.895-3.017,0.966
		c-1.045,0.069-2.09-0.127-3.039-0.57c-0.92-0.43-1.702-1.107-2.258-1.957c-0.89-1.357-1.515-2.871-1.842-4.46
		c-0.356-1.73-0.458-3.503-0.303-5.262c0.142-1.608,0.539-3.184,1.176-4.667c0.496-1.156,1.371-2.109,2.48-2.703
		c0.754-0.403,1.565-0.689,2.405-0.85c0.815-0.155,1.65-0.174,2.472-0.055c0.785,0.114,1.543,0.365,2.241,0.742
		c0.672,0.363,1.265,0.855,1.746,1.449c0.301,0.371,0.638,0.711,1.007,1.015c0.329,0.27,0.694,0.49,1.085,0.656
		c0.386,0.163,0.793,0.269,1.21,0.312c0.457,0.049,0.918,0.048,1.375-0.005c0.665-0.077,1.312-0.264,1.917-0.553
		c0.418-0.2,0.707-0.599,0.766-1.059c0.072-0.562-0.043-1.132-0.328-1.622c-0.487-0.84-1.033-1.646-1.634-2.408
		c-0.51-0.649-1.131-1.204-1.833-1.639c-0.998-0.619-2.034-1.175-3.101-1.664c-1.043-0.478-2.114-0.893-3.207-1.243
		c-0.66-0.211-1.363-0.253-2.044-0.121c-0.114,0.021-0.228,0.046-0.341,0.072c-0.336,0.077-0.673,0.154-1.009,0.231
		c-0.401,0.093-0.801,0.187-1.202,0.28C239.307,491.966,238.864,492.07,238.422,492.175z"/>
</g>
<g id="LWPOLYLINE_26_">
	
		<path fill="#1E193A" stroke="#000000" stroke-width="0.7087" stroke-linecap="round" stroke-linejoin="round" stroke-miterlimit="10" d="
		M389.569,492.105c-1.711,0.54-3.348,1.291-4.874,2.234c-1.281,0.792-2.382,1.846-3.229,3.091c-0.88,1.292-1.494,2.746-1.808,4.277
		c-0.393,1.918-0.591,3.871-0.591,5.829c0,2.306,0.327,4.599,0.971,6.812c0.538,1.854,1.52,3.548,2.857,4.938
		c1.319,1.369,2.958,2.389,4.769,2.966c2.124,0.677,4.34,1.024,6.569,1.031c2.062,0.006,4.108-0.344,6.05-1.035
		c1.726-0.615,3.271-1.648,4.5-3.008c1.284-1.423,2.223-3.123,2.741-4.969c0.615-2.191,0.928-4.458,0.928-6.735
		c0-2.108-0.261-4.21-0.775-6.255c-0.428-1.695-1.219-3.277-2.318-4.636c-1.07-1.322-2.427-2.385-3.968-3.105
		c-1.795-0.84-3.699-1.418-5.658-1.718c-0.513-0.079-1.03-0.128-1.549-0.148c-0.574-0.021-1.149-0.02-1.724,0.007
		c-0.547,0.025-1.092,0.074-1.635,0.146C390.399,491.883,389.979,491.977,389.569,492.105z"/>
</g>
<g id="LWPOLYLINE_27_">
	<path fill="#FFFFFF" stroke="#000000" stroke-miterlimit="10" d="M399.786,500.002c0.367,0.468,0.687,0.971,0.951,1.503
		c0.272,0.548,0.493,1.12,0.659,1.709c0.183,0.65,0.312,1.314,0.384,1.985c0.084,0.776,0.126,1.558,0.126,2.338
		c0,1.488-0.174,2.971-0.519,4.418c-0.279,1.172-0.814,2.267-1.566,3.207c-0.683,0.854-1.575,1.517-2.589,1.926
		c-1.116,0.449-2.308,0.681-3.511,0.681s-2.395-0.231-3.511-0.681c-1.014-0.409-1.905-1.072-2.589-1.926
		c-0.752-0.94-1.287-2.035-1.566-3.207c-0.345-1.447-0.519-2.93-0.519-4.418c0-1.487,0.174-2.97,0.519-4.417
		c0.279-1.172,0.814-2.267,1.566-3.207c0.684-0.854,1.575-1.518,2.589-1.926c1.116-0.45,2.308-0.681,3.511-0.681
		c0.683,0,1.363,0.046,2.04,0.137c0.524,0.071,1.036,0.216,1.52,0.431c0.461,0.205,0.888,0.479,1.266,0.814
		C398.998,499.088,399.413,499.528,399.786,500.002z"/>
</g>
<g id="LWPOLYLINE_28_">
	
		<path fill="#1E193A" stroke="#000000" stroke-width="0.7087" stroke-linecap="round" stroke-linejoin="round" stroke-miterlimit="10" d="
		M169.66,507.537v15.347h3.069h3.069v-6.139c0-1.272,0.019-2.544,0.057-3.816c0.015-0.493,0.117-0.979,0.303-1.437
		c0.128-0.315,0.39-0.559,0.714-0.663c0.458-0.147,0.937-0.223,1.418-0.223c0.496,0,0.984,0.115,1.428,0.336
		c0.528,0.263,1.019,0.597,1.457,0.992c0.613,0.554,1.178,1.159,1.688,1.811c0.768,0.98,1.51,1.98,2.226,3
		c0.824,1.175,1.673,2.331,2.548,3.469c0.468,0.609,1.009,1.159,1.611,1.637c0.457,0.362,0.985,0.625,1.549,0.772
		c0.663,0.174,1.345,0.261,2.031,0.261c0.439,0,0.877-0.012,1.316-0.035c0.371-0.021,0.741-0.057,1.108-0.11
		c0.286-0.041,0.569-0.093,0.851-0.154c0.092-0.021,0.157-0.102,0.157-0.196c0-0.544-0.157-1.076-0.452-1.533
		c-0.979-1.517-1.978-3.021-2.998-4.51c-1.006-1.47-2.036-2.923-3.09-4.359c-0.393-0.535-0.896-0.979-1.475-1.304
		c-0.292-0.164-0.57-0.352-0.832-0.562c-0.122-0.099-0.158-0.27-0.085-0.409c0.094-0.18,0.247-0.322,0.433-0.403
		c0.505-0.222,1.016-0.43,1.531-0.626c1.258-0.479,2.36-1.295,3.183-2.36c0.856-1.106,1.428-2.406,1.666-3.784
		c0.244-1.415,0.15-2.868-0.272-4.24c-0.418-1.356-1.162-2.591-2.166-3.595c-0.534-0.534-1.131-1.003-1.776-1.396
		c-0.571-0.349-1.198-0.595-1.854-0.729c-0.917-0.188-1.85-0.294-2.786-0.316c-1.954-0.047-3.907-0.071-5.861-0.071h-9.766V507.537z
		"/>
</g>
<g id="LWPOLYLINE_29_">
	<path fill="#FFFFFF" stroke="#000000" stroke-miterlimit="10" d="M186.097,498.365c0.837,0.448,1.472,1.197,1.776,2.096
		c0.278,0.82,0.116,1.726-0.428,2.398c-0.742,0.917-1.735,1.599-2.858,1.961c-1.375,0.444-2.812,0.671-4.257,0.671h-4.531v-4.093
		v-4.092h4.16c0.58,0,1.16,0.025,1.738,0.077c0.597,0.054,1.191,0.132,1.781,0.233c0.53,0.092,1.056,0.205,1.577,0.34
		C185.416,498.052,185.767,498.188,186.097,498.365z"/>
</g>
<g id="LWPOLYLINE_30_">
	
		<path fill="#1E193A" stroke="#000000" stroke-width="0.7087" stroke-linecap="round" stroke-linejoin="round" stroke-miterlimit="10" d="
		M200.353,507.537v15.347h11.766h11.766v-2.558c0-0.509-0.101-1.013-0.296-1.483c-0.15-0.36-0.455-0.633-0.829-0.743
		c-0.607-0.179-1.236-0.274-1.869-0.285c-1.9-0.03-3.801-0.046-5.702-0.046h-8.697v-4.093v-4.092h7.673
		c1.654,0,3.307-0.017,4.96-0.05c0.575-0.012,1.145-0.109,1.69-0.291c0.352-0.118,0.631-0.389,0.76-0.737
		c0.174-0.474,0.263-0.975,0.263-1.479c0-0.506-0.089-1.007-0.263-1.48c-0.128-0.349-0.408-0.619-0.76-0.736
		c-0.545-0.183-1.115-0.28-1.69-0.292c-1.653-0.033-3.306-0.05-4.96-0.05h-7.673v-3.58v-3.581h8.185
		c1.777,0,3.554-0.017,5.331-0.048c0.604-0.011,1.204-0.108,1.78-0.288c0.363-0.113,0.655-0.386,0.794-0.74
		c0.185-0.472,0.28-0.975,0.28-1.481v-2.559h-11.254h-11.254V507.537z"/>
</g>
<g id="LWPOLYLINE_31_">
	
		<path fill="#1E193A" stroke="#000000" stroke-width="0.7087" stroke-linecap="round" stroke-linejoin="round" stroke-miterlimit="10" d="
		M259.96,504.503c0.09,1.95,0.207,3.898,0.351,5.845c0.104,1.396,0.258,2.788,0.463,4.174c0.148,1.001,0.346,1.994,0.592,2.977
		c0.16,0.64,0.426,1.248,0.788,1.8c0.542,0.826,1.272,1.51,2.133,1.994c1.125,0.635,2.315,1.146,3.549,1.525
		c1.323,0.407,2.685,0.677,4.064,0.804c1.25,0.115,2.509,0.057,3.742-0.175c1.682-0.315,3.277-0.986,4.679-1.968
		c1.287-0.899,2.296-2.141,2.916-3.583c0.839-1.953,1.356-4.03,1.53-6.149c0.289-3.527,0.442-7.064,0.46-10.604l0.044-8.952h-3.581
		h-3.581v11.562c0,2.758-0.052,5.516-0.155,8.272c-0.045,1.201-0.297,2.386-0.745,3.501c-0.304,0.757-0.906,1.356-1.665,1.657
		c-0.975,0.388-2.014,0.586-3.062,0.586c-1.049,0-2.088-0.198-3.062-0.586c-0.758-0.301-1.36-0.9-1.664-1.657
		c-0.448-1.115-0.7-2.3-0.745-3.501c-0.104-2.757-0.156-5.515-0.156-8.272V492.19h-3.731h-3.731L259.96,504.503z"/>
</g>
<g id="LWPOLYLINE_32_">
	
		<path fill="#1E193A" stroke="#000000" stroke-width="0.7087" stroke-linecap="round" stroke-linejoin="round" stroke-miterlimit="10" d="
		M291.41,507.537v15.347h3.069c0.627,0,1.253-0.051,1.872-0.152c0.338-0.055,0.632-0.262,0.799-0.561
		c0.208-0.372,0.324-0.789,0.339-1.215c0.04-1.186,0.06-2.371,0.06-3.557v-5.485l6.383-0.579c1.16-0.104,2.316-0.246,3.468-0.422
		c0.742-0.114,1.47-0.308,2.171-0.578c0.583-0.225,1.129-0.535,1.621-0.92c0.563-0.44,1.082-0.936,1.549-1.479
		c0.452-0.525,0.864-1.084,1.232-1.672c0.288-0.46,0.504-0.963,0.639-1.489c0.145-0.569,0.213-1.156,0.201-1.743
		c-0.018-0.852-0.073-1.701-0.169-2.548c-0.167-1.482-0.533-2.936-1.088-4.32c-0.412-1.026-1.152-1.887-2.106-2.446
		c-1.158-0.679-2.452-1.093-3.79-1.211c-2.379-0.211-4.766-0.316-7.154-0.316h-9.095V507.537z"/>
</g>
<g id="LWPOLYLINE_33_">
	<path fill="#FFFFFF" stroke="#000000" stroke-miterlimit="10" d="M307.191,499.268c0.522,0.577,0.876,1.288,1.021,2.053
		c0.132,0.703,0.007,1.431-0.354,2.049c-0.418,0.717-1.029,1.303-1.763,1.69c-0.899,0.476-1.865,0.813-2.865,1.001
		c-0.984,0.185-1.982,0.291-2.983,0.318c-0.589,0.016-1.162-0.183-1.615-0.56c-0.453-0.376-0.753-0.904-0.846-1.486
		c-0.157-0.99-0.237-1.991-0.237-2.994c0-0.859,0.029-1.718,0.086-2.575c0.024-0.354,0.172-0.687,0.42-0.939
		c0.244-0.251,0.573-0.403,0.923-0.429c0.834-0.06,1.67-0.089,2.506-0.089c0.606,0,1.212,0.041,1.812,0.124
		c0.535,0.073,1.062,0.199,1.572,0.374c0.456,0.157,0.894,0.364,1.305,0.616C306.551,498.653,306.894,498.938,307.191,499.268z"/>
</g>
<g id="LWPOLYLINE_34_">
	
		<path fill="#1E193A" stroke="#000000" stroke-width="0.7087" stroke-linecap="round" stroke-linejoin="round" stroke-miterlimit="10" d="
		M320.058,507.537v15.347h11.766h11.766v-2.558c0-0.509-0.101-1.013-0.296-1.483c-0.15-0.36-0.455-0.633-0.829-0.743
		c-0.607-0.179-1.236-0.274-1.869-0.285c-1.9-0.03-3.802-0.046-5.702-0.046h-8.696v-4.093v-4.092h7.673
		c1.654,0,3.308-0.017,4.96-0.05c0.575-0.012,1.146-0.109,1.69-0.291c0.353-0.118,0.632-0.389,0.76-0.737
		c0.175-0.474,0.264-0.975,0.264-1.479c0-0.506-0.089-1.007-0.264-1.48c-0.128-0.349-0.407-0.619-0.76-0.736
		c-0.545-0.183-1.115-0.28-1.69-0.292c-1.652-0.033-3.306-0.05-4.96-0.05h-7.673v-3.58v-3.581h8.185
		c1.777,0,3.555-0.017,5.331-0.048c0.604-0.011,1.203-0.108,1.78-0.288c0.363-0.113,0.655-0.386,0.794-0.74
		c0.185-0.472,0.28-0.975,0.28-1.481v-2.559h-11.255h-11.254V507.537z"/>
</g>
<g id="LWPOLYLINE_35_">
	
		<path fill="#1E193A" stroke="#000000" stroke-width="0.7087" stroke-linecap="round" stroke-linejoin="round" stroke-miterlimit="10" d="
		M348.705,507.537v15.347h3.069h3.069v-6.139c0-1.271,0.019-2.542,0.057-3.812c0.015-0.493,0.117-0.98,0.303-1.438
		c0.128-0.315,0.389-0.559,0.713-0.664c0.456-0.147,0.933-0.224,1.412-0.224c0.694,0,1.382,0.132,2.027,0.388
		c0.666,0.264,1.281,0.641,1.819,1.113c0.751,0.659,1.434,1.393,2.038,2.188c1.012,1.33,1.99,2.685,2.938,4.061
		c0.582,0.847,1.195,1.672,1.838,2.474c0.388,0.484,0.848,0.907,1.362,1.255c0.442,0.298,0.939,0.504,1.464,0.604
		c0.675,0.13,1.36,0.194,2.048,0.194h3.598l-2.367-4.217c-0.342-0.607-0.699-1.206-1.074-1.794
		c-0.409-0.645-0.832-1.281-1.269-1.907c-0.409-0.589-0.831-1.169-1.266-1.739c-0.327-0.43-0.675-0.844-1.041-1.24l-2.282-2.465
		l2.425-1.104c1.182-0.538,2.196-1.384,2.939-2.448c0.785-1.124,1.305-2.411,1.521-3.766c0.219-1.371,0.129-2.775-0.262-4.108
		c-0.376-1.281-1.068-2.448-2.013-3.393c-0.54-0.54-1.144-1.011-1.798-1.403c-0.583-0.351-1.224-0.596-1.892-0.728
		c-0.949-0.187-1.912-0.291-2.879-0.312c-2.073-0.046-4.147-0.069-6.221-0.069h-10.277V507.537z"/>
</g>
<g id="LWPOLYLINE_36_">
	<path fill="#FFFFFF" stroke="#000000" stroke-miterlimit="10" d="M366.534,498.912c0.641,0.641,0.97,1.529,0.899,2.434
		c-0.07,0.913-0.522,1.754-1.246,2.316c-0.998,0.775-2.171,1.296-3.416,1.516c-1.479,0.262-2.987,0.309-4.479,0.138
		c-0.548-0.062-1.09-0.175-1.619-0.334c-0.345-0.104-0.65-0.312-0.872-0.598c-0.247-0.316-0.413-0.688-0.483-1.084
		c-0.127-0.714-0.22-1.434-0.28-2.157l-0.317-3.836h5.104c0.761,0,1.521,0.034,2.279,0.103c0.646,0.058,1.286,0.163,1.917,0.313
		c0.516,0.124,1.02,0.292,1.506,0.504C365.902,498.39,366.244,498.622,366.534,498.912z"/>
</g>
<g id="LWPOLYLINE_37_">
	
		<path fill="#1E193A" stroke="#000000" stroke-width="0.7087" stroke-linecap="round" stroke-linejoin="round" stroke-miterlimit="10" d="
		M294.991,544.065c-1.526,0.405-2.969,1.077-4.262,1.984c-1.327,0.933-2.494,2.074-3.454,3.382
		c-0.979,1.332-1.738,2.812-2.251,4.383c-0.514,1.575-0.776,3.222-0.776,4.879c0,2.568,0.602,5.102,1.758,7.396
		c1.108,2.199,2.785,4.062,4.855,5.396c2.053,1.322,4.425,2.064,6.866,2.146c2.525,0.085,5.034-0.446,7.308-1.547
		c1.236-0.599,2.382-1.369,3.401-2.29c1.084-0.979,2.049-2.082,2.875-3.286c0.799-1.165,1.453-2.422,1.948-3.743
		c0.436-1.161,0.658-2.392,0.658-3.632c0-1.152-0.185-2.297-0.546-3.391c-0.444-1.349-1.004-2.655-1.673-3.908
		c-0.656-1.229-1.417-2.4-2.273-3.5c-0.658-0.845-1.47-1.558-2.393-2.103c-0.867-0.513-1.788-0.931-2.745-1.246
		c-1.103-0.363-2.229-0.649-3.371-0.854c-1.101-0.198-2.215-0.317-3.333-0.357C296.711,543.742,295.837,543.841,294.991,544.065z"/>
</g>
<g id="LWPOLYLINE_38_">
	<path fill="#FFFFFF" stroke="#000000" stroke-miterlimit="10" d="M304.647,547.263c2.132,1.143,3.916,2.84,5.165,4.911
		c1.236,2.052,1.879,4.406,1.855,6.803c-0.023,2.372-0.716,4.69-1.997,6.688c-1.283,2.001-3.102,3.602-5.25,4.621
		c-1.002,0.476-2.036,0.878-3.097,1.205c-0.846,0.261-1.724,0.401-2.608,0.417c-0.844,0.015-1.684-0.099-2.494-0.335
		c-0.941-0.276-1.854-0.642-2.726-1.093c-2.234-1.155-4.11-2.901-5.423-5.047c-1.297-2.12-1.965-4.564-1.924-7.05
		c0.04-2.457,0.791-4.851,2.162-6.892c1.376-2.048,3.309-3.659,5.571-4.645c0.968-0.421,1.966-0.77,2.985-1.042
		c0.807-0.216,1.641-0.309,2.475-0.276c0.831,0.032,1.653,0.189,2.438,0.467C302.767,546.344,303.726,546.768,304.647,547.263z"/>
</g>
<g id="LWPOLYLINE_39_">
	
		<path fill="#1E193A" stroke="#000000" stroke-width="0.7087" stroke-linecap="round" stroke-linejoin="round" stroke-miterlimit="10" d="
		M291.666,551.613c0.359,0.209,0.661,0.503,0.879,0.855c0.251,0.404,0.435,0.846,0.544,1.309c0.159,0.671,0.255,1.355,0.288,2.044
		c0.053,1.116,0.079,2.232,0.079,3.349c0,0.955-0.025,1.908-0.077,2.861c-0.038,0.712-0.122,1.421-0.249,2.123
		c-0.09,0.497-0.221,0.985-0.391,1.461c-0.095,0.267-0.299,0.479-0.562,0.585c-0.057,0.023-0.085,0.089-0.062,0.146
		c0.008,0.021,0.023,0.039,0.043,0.052c0.142,0.092,0.301,0.153,0.468,0.183c0.394,0.066,0.791,0.11,1.189,0.132
		c0.562,0.03,1.124,0.048,1.687,0.055c0.786,0.008,1.572,0.005,2.357-0.009c0.315-0.006,0.628-0.062,0.925-0.168
		c0.109-0.038,0.166-0.157,0.128-0.267c-0.008-0.021-0.019-0.042-0.032-0.06c-0.156-0.197-0.348-0.364-0.564-0.49
		c-0.282-0.164-0.529-0.382-0.729-0.639c-0.23-0.297-0.422-0.621-0.571-0.966c-0.167-0.385-0.29-0.787-0.367-1.199
		c-0.082-0.439-0.124-0.886-0.124-1.333c0-0.766,0.174-1.521,0.508-2.211c0.233-0.479,0.77-0.731,1.288-0.604
		c0.68,0.167,1.268,0.592,1.639,1.186c0.546,0.873,0.981,1.811,1.298,2.791c0.278,0.861,0.708,1.666,1.269,2.376
		c0.504,0.639,1.159,1.143,1.905,1.468c0.617,0.269,1.307,0.322,1.958,0.152c0.627-0.163,1.168-0.559,1.515-1.105
		c0.297-0.468,0.558-0.957,0.781-1.464c0.127-0.288,0.141-0.613,0.038-0.911c-0.054-0.156-0.224-0.24-0.38-0.187
		c-0.032,0.012-0.062,0.028-0.09,0.049c-0.336,0.268-0.637,0.576-0.896,0.918c-0.248,0.327-0.533,0.623-0.852,0.883
		c-0.178,0.146-0.429,0.159-0.621,0.034c-0.271-0.176-0.495-0.417-0.648-0.702c-0.426-0.789-0.838-1.586-1.236-2.39
		c-0.415-0.839-0.815-1.685-1.201-2.537c-0.151-0.335-0.233-0.696-0.242-1.063c-0.007-0.279,0.102-0.549,0.301-0.745
		c0.31-0.307,0.652-0.577,1.021-0.809c0.719-0.448,1.293-1.095,1.654-1.861c0.315-0.669,0.317-1.444,0.006-2.115
		c-0.348-0.747-0.954-1.343-1.707-1.676c-0.9-0.398-1.874-0.604-2.858-0.604c-0.263,0-0.525,0.019-0.785,0.057
		c-0.111,0.017-0.192,0.114-0.187,0.227c0.008,0.147,0.066,0.287,0.166,0.396c0.289,0.315,0.586,0.625,0.889,0.929
		c0.411,0.411,0.795,0.85,1.146,1.312c0.214,0.28,0.344,0.616,0.374,0.968c0.028,0.324-0.053,0.648-0.229,0.922
		c-0.264,0.405-0.569,0.782-0.911,1.124c-0.494,0.494-1.078,0.89-1.721,1.165c-0.516,0.221-1.095,0.239-1.622,0.05
		c-0.51-0.182-0.924-0.562-1.149-1.054c-0.276-0.602-0.418-1.256-0.418-1.918c0-0.395,0.032-0.789,0.094-1.18
		c0.06-0.367,0.154-0.729,0.281-1.079c0.107-0.292,0.245-0.571,0.412-0.833c0.118-0.184,0.289-0.326,0.491-0.408
		c0.057-0.022,0.085-0.088,0.062-0.145c-0.009-0.021-0.024-0.04-0.043-0.052c-0.142-0.092-0.301-0.154-0.468-0.183
		c-0.394-0.066-0.791-0.111-1.189-0.133c-0.562-0.029-1.124-0.048-1.687-0.054c-0.786-0.009-1.572-0.006-2.357,0.009
		c-0.315,0.006-0.628,0.062-0.925,0.167c-0.109,0.039-0.166,0.158-0.127,0.268c0.008,0.021,0.019,0.041,0.033,0.06
		C291.257,551.32,291.449,551.487,291.666,551.613z"/>
</g>
</svg>
